<?xml version="1.0" encoding="utf-8"?>
<!-- Generator: Adobe Illustrator 18.0.0, SVG Export Plug-In . SVG Version: 6.00 Build 0)  -->
<!DOCTYPE svg PUBLIC "-//W3C//DTD SVG 1.1//EN" "http://www.w3.org/Graphics/SVG/1.1/DTD/svg11.dtd">
<svg version="1.1" id="Calque_1" xmlns="http://www.w3.org/2000/svg" xmlns:xlink="http://www.w3.org/1999/xlink" x="0px" y="0px"
	 viewBox="989.7 -8.2 591.6 595.3" enable-background="new 989.7 -8.2 591.6 595.3" xml:space="preserve">
<g>
	<path d="M1343.1,318.8c2.4,8.4,7.7,10.7,15.7,10.8c13.3,0.3,5.9-12.1,11.7-17.4c-0.7,3.3-1.2,5.5-1.5,7.6c-0.7,5.7,1.5,8.1,7.4,6.7
		c4-0.9,7.9-1.7,11.9-2.2c7.7-1,15-2.6,16.5-13.3c6.2,2.4,11.5,4.5,18.9,7.2c-28.9,25.6-62.3,26.5-97.8,27.7
		c8.1-5.7,14.5-10.2,21-14.6c-0.3-0.7-0.7-1.5-1.2-2.2c-1.5,0.3-3.4,0.3-4.8,1.2c-43.7,26.5-91.6,42.9-140.1,57.2
		c-34.6,10.2-69.2,20-104,29.3c-21.2,5.7-42.9,9.6-64.2,15c-8.4,2.1-12.9-0.5-16-11.7c8.8,12.4,18.2,7.6,27.2,5.5
		c81.1-17.9,160.6-41.8,237.8-72.5c16.4-6.5,31-16.9,46.3-25.6C1332.6,324.8,1337.6,322,1343.1,318.8z"/>
	<path d="M1254.4,253.7c-5-9.3,1.4-16.5,5-23.9c-16.7-18.1-35.8-11.9-54.9-5.5c-0.2-0.7-0.5-1.4-0.7-2.1c10-6,19.8-12.1,30-17.7
		c1.7-0.9,5,0,7.1,1c8.8,4.1,17.4,8.8,26.2,12.7c2.6,1,6.2,1.4,8.6,0.3c12.6-5.7,24.6-11.9,37-17.7c2.4-1.2,5.9-2.6,7.9-1.7
		c13.1,6.2,25.8,13.1,38.6,19.6c-0.3,0.7-0.5,1.5-0.9,2.2c-10.7-2.8-21.5-4.8-32-8.3c-9.5-3.1-16-0.2-21.7,7.1
		c-4.1,5.5-8.6,10.7-13.3,15.8c-7.1,7.9-15.8,12.9-26.7,14.3C1261.4,250.4,1258.1,252.3,1254.4,253.7z"/>
	<path d="M1361.7,176.9c-10.8-2.1-21.9-3.8-32.7-6c-8.6-1.7-15.7-0.2-21.2,7.4c-9,11.9-20.3,19.8-35.6,21.7
		c-3.4,0.3-6.5,2.9-10.2,4.6c-5.2-7.6,0.3-13.9,2.6-20.5c-18.4-13.1-37.9-17.7-59.4-7.7c-0.2-0.9-0.3-1.7-0.7-2.6
		c10.2-5.5,20.1-11.4,30.5-16.5c1.7-0.9,5,0.7,7.2,1.7c10,4.8,20,10.2,30.1,14.8c2.8,1.2,6.9,1.7,9.5,0.7
		c10.8-4.5,21.2-10.2,32-14.8c3.3-1.4,7.9-2.2,11-0.9c12.7,5,25,11,37.4,16.7C1361.9,175.8,1361.7,176.3,1361.7,176.9z"/>
	<path d="M997.4,258.9c8.3,9.1,16.9,2.8,25.6-0.5c7.9-3.1,15.8-5.9,23.8-8.6c0.2-1.2,0.3-2.4,0.5-3.6c-10.5-4.5-21-9-31.3-13.6
		c-3.6-1.5-7.4-2.9-10.7-5.2c-4-2.6-5.5-5.5-3.1-11.2c4.6-10.8,7.2-22.7,11.2-34.1c0.9-2.6,3.8-4.6,5.7-6.9c0.9,0.5,1.7,1,2.6,1.5
		c-2.2,5.2-4.3,10.2-5.7,13.4c5.5,2.4,10,3.8,13.9,6c10.8,6.4,21.3,13.1,32,19.6c0.9,0.5,1.4,1.5,2.1,2.4c-0.3,0.9-0.5,1.7-0.9,2.6
		c-6.2-1.7-12.6-2.6-18.4-5.2c-8.1-3.6-15.7-8.1-23.4-12.6c-5.5-3.1-8.6-3.6-9.5,4.3c-1.5,14.3-1.9,14.1,11.2,20
		c8.3,3.8,16.7,7.6,24.4,12.4c3.1,1.9,6.5,6.4,6.5,9.6c0,2.6-4.5,6-7.6,7.7c-7.1,3.8-14.6,6.5-21.9,9.8c-1.9,0.9-3.6,2.2-7.2,4.6
		c12.9,6.5,24.3,12.4,35.6,18.2c-0.3,0.9-0.7,1.5-1,2.4c-11.9-3.4-23.6-7.4-35.6-10.3C1003.9,279.4,992.7,276.1,997.4,258.9z"/>
	<path d="M1548.2,144.9c4.1,2.9,2.6,7.1-1.7,11.4c-44.6,43.6-89.2,87.3-133.8,130.8c-3.4,3.4-7.2,6.5-10.8,9.8
		c-10.2,9.6-10.2,9.6-26.5,8.4c7.2-6,13.6-11.7,20.1-17c50.3-41.3,98.5-84.7,144.4-130.8C1543.4,154.4,1545.3,149.6,1548.2,144.9z"
		/>
	<path d="M1381.5,11.7c-1.7,2.4-2.9,4-4.3,5.9c1.5,0.5,2.6,1,3.6,0.9c11.4-1.2,22.4-1.4,31.3,7.4c5.9,5.9,9.3,12.6,7.2,20.8
		c-2.2,8.8-9,14.5-17.4,16.2c-11.2,2.2-22.6,3.4-33.9,3.8c-19.3,0.5-25.3-9-18.1-26.7c0.3-0.7,0.3-1.5,0.5-2.9
		c-1.7-0.3-3.1-0.5-4.6-0.9C1345.5,32.3,1373.8,12,1381.5,11.7z M1375.1,65.7c8.4-3.3,17.4-5.3,24.8-10.2c4.3-2.8,7.7-9.3,8.4-14.5
		c0.9-6.5-3.4-12.2-10-15.5c-18.2-8.8-31.2-3.3-38.7,16.7C1354.5,56.3,1359.8,64.2,1375.1,65.7z"/>
	<path d="M1548.9,257c9.6,6,21,12.9,32.4,20c-0.5,1-1,1.9-1.4,2.9c-2.1-0.3-4.1-0.5-6.9-1c2.2,6.5,5.3,12.4,6,18.6
		c0.7,5.7,0.2,12.2-2.1,17.4c-6.5,15.1-24.1,18.1-33.7,5c-8.1-11.2-14.8-23.8-19.5-36.7c-5.2-14.3,2.6-22.6,17.6-22.2
		C1543,260.8,1544.9,259,1548.9,257z M1572.7,297.6c-1.2-20.5-8.1-25.6-24.3-26.5c-3.6-0.2-7.4,0-11.2,0.5c-7.2,1-10.5,5.5-9.3,12.7
		c1.7,10.8,7.2,19.8,15.7,26.9c5.9,4.8,11.9,8.3,19.5,4.3C1570.4,311.7,1573.2,305.5,1572.7,297.6z"/>
	<path d="M1483.1,162.2c6.2-4,12.2-7.9,20-12.9c-7.6-7.1-13.3-16-21.2-18.8c-7.7-2.8-17.6,1-27.5,0.9c2.4-1.5,5-3.3,7.4-4.8
		c3.4-2.1,9.3-1.4,9.3-7.9c0-0.7,4-2.4,4.8-1.9c6.7,5,13.1,1.2,19.6-0.2c6.9-1.4,14.3-4.5,20.7-3.1c6.9,1.4,12.9,7.1,18.6,12.7
		c-2.1,0.3-4,0.7-7.1,1.2c3.1,9,2.9,16.2-7.2,20.3c-7.2,3.1-13.4,8.6-20.5,12.1c-5,2.6-10.7,3.6-16,5.3
		C1483.6,164.1,1483.2,163.1,1483.1,162.2z M1487.4,125.8c4.6,5.7,7.6,10,11.4,13.6c2.4,2.4,7.7,6.2,8.6,5.5c4-3.3,8.3-7.6,10-12.4
		c1.9-5.5-1.7-9.3-8.1-8.8C1502.9,124.3,1496.3,125.1,1487.4,125.8z"/>
	<path d="M1285.7,348.7c-22.9,8.1-45.8,16.2-68.7,23.9c-1.5,0.5-5.3-1.4-6.4-3.1c-4.8-9.5-9.1-19.1-13.1-28.9
		c-0.7-1.7,0.5-5.5,2.1-6.7c4-2.9,8.8-5,12.9-7.2c6.9,8.3,13.4,15.7,19.8,23.4c5.7,6.7,12.7,8.4,20.8,6.2c10.7-2.9,21.3-6,32-9.1
		C1285.5,347.5,1285.5,348,1285.7,348.7z"/>
	<path d="M1101.1,156.8c-12.2,8.1-24.4,16.2-36.7,24.3c-0.7,1.4-1.4,2.6-2.1,4c4.5,2.8,9.1,5.5,13.6,8.1c-0.7,0.9-1.4,1.7-2.1,2.6
		c-6.7-3.1-13.6-6.2-21.9-10c-1-7.4-10-8.6-17-11.4c-11.2-4.3-14.3-9.3-7.6-19.1c6-8.8,13.9-16.5,21.7-23.9c2.4-2.2,9-3.8,10.7-2.2
		c2.6,2.2,3.6,7.6,3.1,11.4c-1.4,10.7-3.8,21.2-6.4,34.6c15.7-7.9,29.3-14.8,42.7-21.5C1100,154.5,1100.6,155.8,1101.1,156.8z
		 M1053.9,174.8c1.5-11.4,3.1-20.7,4.1-30c0.7-5.9-2.8-9.3-7.4-5c-7.2,6.7-13.1,14.6-18.9,22.6c-0.9,1.2,1.4,4.8,2.8,9.1
		c2.9-4.8,4.3-7.1,5.9-9.6C1044.8,166.2,1048.6,169.8,1053.9,174.8z"/>
	<path d="M1493.1,457.9c0.9-1.9,1.7-4,2.8-5.7c4-6.2,8.6-12.2,12.1-18.8c6.7-12.6,5.3-16-10.3-26c-7.6,13.9-15,27.7-22.6,41.5
		c-0.5-0.2-1-0.5-1.5-0.7c0.3-1.7,0.5-3.4,1.2-5c5.3-12.2,10.8-24.6,16.5-36.7c3.3-7.1,8.3-8.4,14.5-4.1
		c7.2,5.2,13.9,10.8,20.7,16.5c13.1,11.2,9.8,25,4.5,37.9c-3.3,7.9-9.5,15-14.8,21.9c-1.2,1.5-4.6,1-7.2,1.5c0.7-2.2,1-5,2.4-6.9
		c5.3-7.6,11.4-14.8,16.5-22.6c1.2-1.7,1.2-5.3,0.2-7.2c-3.1-6.2-7.1-12.1-11.9-17.9c-4.6,13.1-9.3,25.3-20.1,33.6
		C1494.9,458.7,1494.1,458.2,1493.1,457.9z"/>
	<path d="M1337.4,130.8c-5.9-0.9-11.9-1.5-17.7-2.6c-7.1-1.4-12.6,0.7-16.2,6.9c-5.7,9.8-12.7,17.2-24.8,18.9c-2.8,0.3-5,3.3-9.5,6
		c0.3-5.7-0.5-10.3,1-14.1c2.2-5.5-0.3-7.2-4.3-10c-10.3-7.2-21-7.4-32.5-3.4c-4,1.4-8.3,2.1-12.4,2.9c-0.3-0.7-0.7-1.2-1-1.9
		c9.3-4.8,18.2-10.8,28.1-13.8c4.5-1.4,11.5,2.9,16.4,6.2c12.2,8.4,23.8,8.3,35.1-1c9.5-7.9,18.6-6.5,28.2-0.7
		c3.1,1.9,6.5,3.3,10,4.8C1337.6,129.6,1337.6,130.3,1337.4,130.8z"/>
	<path d="M1298.6,57.8c-1.9-5.7-3.3-9.3-4.3-13.1c-4.3-14.1-9-28.1-12.6-42.3c-1.3-5.5,10.7-13.1,15.5-9.8c1.5,1,1.7,5,1.2,7.4
		c-2.8,15.3,0.3,29.8,6.2,45.4c2.9-2.1,5.7-3.1,7.2-5.2c7.7-9.5,14.8-19.5,22.7-28.6c2.6-2.9,7.4-3.6,11.2-5.3
		c0.7,0.9,1.4,1.9,2.1,2.8c-3.8,5.2-7.2,10.5-11.4,15.3c-7.9,9.3-15.7,18.8-24.4,27C1308.5,55,1302.5,56.1,1298.6,57.8z"/>
	<path d="M1141.9,45.1c-5.2,1.2-10.2,2.4-15.1,3.6c-0.5-0.9-0.9-1.5-1.4-2.4c1.9-1.7,3.4-4,5.5-5c13.8-6.7,28.2-10.8,43.7-9.6
		c12.7,1,18.6,8.3,14.6,20.3c-4.1,12.2-4.5,26.2-14.8,35.8c-3.1,2.9-6.2,5.7-9.3,8.6c-0.7-0.3-1.2-0.9-1.9-1.2
		c1-2.2,2.1-4.5,3.3-6.7C1172,78,1178.6,68,1183,57.2c3.4-8.1-0.3-14.5-9.3-15.7c-7.9-1.2-16-0.2-26-0.2c2.1,10.7,3.4,18.6,5.3,26.7
		c1.9,7.9,4.1,15.5,4.5,23.9C1150.7,77.1,1137.1,64.7,1141.9,45.1z"/>
	<path d="M1090.7,509.1c-5.9-15.5-11.5-31-17.7-47.3c-4.5,1.4-9.5,3.1-14.3,4.6c-0.5-0.9-1.2-1.5-1.7-2.4
		c5.7-4.8,11.5-9.5,18.2-15.1c7.6,2.6,12.4-5.3,18.1-10.2c9.6-8.4,15-8.4,21.7,2.6c4,6.5,7.2,13.6,9.5,21c2.4,7.7-2.4,12.6-10.3,10
		c-10-3.3-19.5-7.9-30.3-12.4c-1.2,17,6.9,32.2,10.8,47.9C1093.5,508.1,1092.1,508.6,1090.7,509.1z M1087.1,454.1
		c-0.2,0.9-0.5,1.9-0.7,2.8c7.7,3.3,15.1,7.2,23.1,9.8c6,2.1,9.3-1.4,6.9-7.2c-2.6-6.5-6.2-12.7-10.3-18.4c-1.4-1.9-5.3-2.1-8.3-2.9
		c-0.3,0.9-0.7,1.5-1,2.4c1.2,2.1,2.4,4,4,6.5C1095.9,449.4,1091.4,451.7,1087.1,454.1z"/>
	<path d="M1046,349.4c9.6,10.3,18.1,20.7,20.3,35.6c2.2,14.5-11.2,27.7-26.5,25.6c-18.9-2.6-38.2-22.7-40.1-41.8
		c-0.3-2.9,0.2-6.7,1.9-8.8c6.5-7.6,28.2-2.8,32.2,7.1c-6.5,4.5-13.3,2.6-19.3-0.5c-6-2.9-7.9-1.2-7.7,4.8
		c0.3,11.5,5.9,20.1,15.8,25.8c9.8,5.5,20,4.6,29.6-0.2c7.4-3.8,10.2-17.7,5.7-27.2C1054.4,362.7,1049.9,356.1,1046,349.4z"/>
	<path d="M1329.5,521.7c-0.7,16.7-1,33.6-2.6,50.1c-0.3,3.4-4.1,7.9-7.6,9.5c-1.9,0.9-7.1-2.4-9.1-5c-6.2-8.1-11.5-16.7-18.1-26.7
		c-5.9,13.3-11.4,25.3-16.9,37.5c-1-0.3-1.9-0.7-2.9-1c1.7-5.7,3.4-11.4,5-17c2.9-10.5,6.4-20.8,8.3-31.5c1.2-6.4,2.2-10.3,9.6-9.3
		c1,0.2,2.2-1.2,3.6-1.9c-5.2,20.8,9.8,32.7,18.6,49.2c10.8-18.4,1-38,8.6-54.6C1327.4,521.1,1328.5,521.5,1329.5,521.7z"/>
	<path d="M1232.7,541.6c-8.8,11.4-16.5,21.3-24.3,31.2c-0.3,0.3-1.5,0-3.3-0.2c6.5-11.9,12.9-23.2,19.1-34.6
		c0.7-1.2,1.5-2.4,1.9-3.8c2.8-8.6,5.7-16.9,17.2-12.2c-8.3,18.1,2.6,33.2,7.9,50.8c14.6-15.3,9.1-36.3,21.9-50.6
		c-0.3,3.1-0.5,6.2-1.2,9.1c-3.3,12.9-6,26.2-10.3,38.7c-1.2,3.8-5.9,8.1-9.8,9c-2.1,0.5-7.1-4.6-8.6-8.3
		C1239.4,561.9,1236.5,552.3,1232.7,541.6z"/>
	<path d="M1213,35.9c9-3.3,17.2-6.7,25.8-9.5c1.7-0.5,4.3,1.2,6.4,1.9c-1.7,1.4-3.4,3.1-5.5,3.8c-3.8,1.2-7.7,1.7-11.5,2.9
		c-17.4,5.7-18.8,8.3-13.3,27.7c12.6-4.8,25.1-9.5,37.7-14.3c0.3,1,0.9,1.9,1.2,2.9c-12.7,5.7-25.1,11.7-38.2,16.7
		c-1.9,0.7-7.7-3.8-8.6-6.7c-2.4-8.4-4-17.2-4.6-26c-1.5-21,18.8-39.2,40.3-37c1.7,0.2,3.3,2.2,5,3.4c-1.5,1.2-3.1,2.8-4.8,3.4
		c-1.2,0.5-2.8-0.2-4.3-0.2C1217.5,6.2,1209.3,16.5,1213,35.9z"/>
	<path d="M1572,203c-18.1,2.2-33.2,9.3-47.7,21.5c12.1,7.1,23.4,12.6,36.2,13.9c7.1,0.7,11.2,2.9,11.9,12.1
		c-6.4-1.7-12.2-2.9-17.7-4.8c-11.5-4.1-23.1-8.4-34.1-13.4c-4.1-1.9-6.9-6.5-9.6-9.1c5-3.6,8.4-6.2,12.1-8.6
		c11.2-7.6,22.4-15.7,33.9-22.6C1563.2,188,1567.7,191.5,1572,203z"/>
	<path d="M1021.7,331.5c-1.7-8.3-3.6-16.4-4.8-24.6c-0.3-1.9,2.1-4.3,3.1-6.4c0.7,2.1,1.9,4.1,2.2,6.4c0.9,5.9,1,12.1,2.6,17.7
		c0.9,3.3,2.9,7.9,5.7,9c4.5,1.7,10,1,15,1.4c0.2-3.4,1-7.1,0.5-10.3c-1.4-9.5-3.4-18.9-4.5-28.6c6,12.4,11.4,25.1,11.7,39.1
		c0,2.2-3.8,6.5-6,6.7c-10.5,0.7-21.2,1.2-31.7,0c-13.3-1.4-23.1-12.4-24.8-25.8c-0.7-5.7-1.2-11.4-0.9-17c0-1.9,2.8-3.6,4.3-5.3
		c0.9,2.1,2.4,4,2.8,6c0.3,2.8-0.5,5.7-0.7,8.6C995.7,324.8,1005.3,333.2,1021.7,331.5z"/>
	<path d="M1362,510.8c-2.8,7.2-1,10,4.8,10c1.4,0,3.4,1.2,4,2.6c6.5,15.5,12.7,31,11.2,48.2c0,0.7-1,1.2-2.6,2.9
		c-2.2-8.3-4.1-15.5-6.4-24.1c-9,4.3-18.9,6.5-24.6,12.7c-5.5,5.9-6.7,15.7-10,23.8c-1-0.3-2.1-0.5-3.1-0.9
		c0.7-3.6,1.5-7.2,1.7-10.8c0.2-3.1-1-6.2-1.2-9.3c0-2.2,0.5-4.6,1.4-6.5c2.2-5.2,6.2-10.2,7.2-15.5
		C1348.6,525.6,1351.2,519.4,1362,510.8z M1349.1,555.6c5.7-1.7,9.5-2.6,12.9-4.3c3.3-1.7,9-4.8,8.6-6.4c-0.9-5-3.3-10.2-6.5-14.1
		c-3.2-3.9-7.4-2.4-9,2.6C1353.3,539.9,1351.5,546.6,1349.1,555.6z"/>
	<path d="M1115.4,487.1c10.5-4.1,21-8.1,33.6-13.1c-2.4,3.4-3.4,4.8-4.8,6.7c1.5,0.5,2.6,1,3.6,1c12.1,0.3,19.3,4.8,20.8,13.4
		c2.2,12.4-3.8,25.8-14.6,28.7c-13.1,3.4-26.5,4.6-39.1-2.4c-12.9-7.2-13.9-16.7-3.1-26.5c1.9-1.7,2.9-4.1,4.5-6.2
		C1116.1,488.3,1115.7,487.8,1115.4,487.1z M1133.6,522.9c0.2,0.3,0.3,0.7,0.3,1c5.3-1.7,10.8-2.9,15.8-5.2
		c10.3-4.6,14.6-17.2,9.5-25.6c-4.8-7.9-19.5-10.8-27.5-4.8c-5,3.8-9.5,8.3-13.4,13.1c-7.6,9.1-4.8,17,6.7,20.3
		C1127.8,522.4,1130.7,522.5,1133.6,522.9z"/>
	<path d="M1145.6,548.3c3.1-2.8,8.3-5,9.1-8.4c2.9-11,13.9-10.3,20.5-16c4.8-4.1,9.1-8.8,14.5-12.2c5.3-3.6,11.5-6,17.6-9
		c1.5,12.6,4.1,23.2-0.7,34.6c-4.5,10.7-9,20.7-16.2,29.3c-0.7-0.3-1.5-0.7-2.2-1c2.8-7.1,5.3-14.3,8.6-22.7c-9.5-1.9-18.8-6-27-4.6
		c-7.9,1.4-14.8,8.4-22.2,13.1C1146.6,550.4,1146.1,549.4,1145.6,548.3z M1174.3,532.5c5.7,1.9,9,3.6,12.4,4.1
		c3.8,0.7,10.5,1.4,11,0.2c2.1-4.8,2.4-10.7,2.4-16c0-0.9-5.9-3.3-7.4-2.2C1186.9,522.2,1181.5,526.8,1174.3,532.5z"/>
	<path d="M1085.6,122c8.4-19.1,15.1-26.2,21.2-21.7c-3.3,3.8-6.7,7.4-10,11.4c-11.5,14.1-11.2,17.2,3.8,30.5
		c7.4-10.3,14.8-20.5,22.2-30.6c0.7,0.3,1.4,0.9,2.1,1.2c-5.2,9.1-10.5,18.1-15.3,27.4c-5.3,10.3-11.4,11.2-19.5,1.9
		c-4.5-5.2-9.5-9.8-13.9-15.1c-9.5-11.2-10.8-24.6-2.9-37.2c3.4-5.5,8.4-10,13.3-14.5c1.2-1.2,4.3-0.3,6.5-0.3
		c-0.9,1.9-1.5,3.8-2.6,5.5c-0.3,0.7-1.4,1-2.1,1.5C1071.8,94.6,1070.8,105.3,1085.6,122z"/>
	<path d="M1505.8,394.5c0.7-7.2,1.2-14.5,1.9-21.5c0.2-1.4,0.9-2.8,1.2-4.1c3.4-11.5,5.5-11.9,16-5.5c6.4,4,13.4,6.7,20.7,9.1
		c11.4,3.8,20.7,19.1,15.7,30.1c-5.7-4.5-11.2-8.6-16.4-13.1c-6.9-5.7-13.3-11.7-20.3-16.9c-6.7-5-9.3-3.8-11.4,4.3
		c-1.5,6-2.9,11.9-4.3,17.9C1507.9,394.7,1506.8,394.5,1505.8,394.5z"/>
	<path d="M1428.8,480.8c4.5,8.3-2.8,13.1-6,19.3c-0.2-1.4-0.5-2.6-0.7-4c-0.7-0.2-1.4-0.5-1.9-0.7c-1.4,4.6-4,9.6-3.4,14.1
		c0.3,2.4,5.5,5,9.1,6.2c8.8,3.4,19.6,1.2,26.7,9.6c0.3,0.5,2.4-0.3,3.6-0.5c-4.6,6.4-8.8,12.6-13.4,18.4c-4.6,5.9-9,12.7-19.8,12.4
		c5-5.9,6.9-12.2,14.8-13.8c2.1-0.3,3.8-5.7,4.1-9c0.2-1.7-2.6-5-4.6-5.5c-6.2-1.7-12.7-2.6-19.3-3.8c-8.6-1.5-10-7.6-8.8-14.8
		C1410.4,501.5,1421.1,486.3,1428.8,480.8z"/>
	<path d="M1442.3,99.5c-8.6,2.6-28.4-4.3-31.5-10.7c-1-1.9-1-5.5,0.2-6.9c9.5-11,18.9-22.2,29.4-32c5.3-5,12.9-7.9,20.8,0
		c-6.2,5-12.1,9.8-17.9,14.5c-6.2,5-12.9,9.6-18.8,15c-6.7,6-6.4,8.4,1.4,12.4C1430.7,94.3,1435.9,96.5,1442.3,99.5z"/>
	<path d="M1571.6,367.1c-5-3.3-9-6.7-13.6-8.8c-11.7-5.7-23.8-10.7-35.5-16c-1.7-0.9-3.1-2.6-4.5-4c1.5-1.2,3.3-3.6,4.8-3.4
		c5.3,0.3,10.7,1.5,15.8,2.6c6.7,1.4,13.4,3.1,20.1,4.3C1568.7,343.2,1574.5,354.1,1571.6,367.1z"/>
	<path d="M1396.3,503.2c1.9,10.7,3.6,21.3,5.9,31.8c1.5,6.9,4.3,13.6,6.2,20.5c0.5,1.9-0.5,4.3-1,6.4c-1.9-1-4.6-1.5-5.7-3.1
		c-2.1-3.4-3.4-7.2-4.5-11c-3.1-11.4-6.4-22.7-8.6-34.3c-0.7-3.4,2.6-7.6,4-11.4C1393.9,502.6,1395.1,502.9,1396.3,503.2z"/>
	<path d="M1233.9,310c-13.4,7.4-26.9,14.8-40.3,22c-0.3-0.5-0.5-1-0.9-1.5c13.3-7.9,26.5-15.7,39.8-23.6
		C1233,308.1,1233.5,309,1233.9,310z"/>
</g>
</svg>
